<mxfile host="app.diagrams.net" agent="Mozilla/5.0 (Macintosh; Intel Mac OS X 10.15; rv:133.0) Gecko/20100101 Firefox/133.0" version="26.0.4" pages="3">
  <diagram name="Overview" id="v7V9TTQ79DsOM2a4C21T">
    <mxGraphModel dx="1550" dy="1899" grid="1" gridSize="10" guides="1" tooltips="1" connect="1" arrows="1" fold="1" page="1" pageScale="1" pageWidth="850" pageHeight="1100" math="0" shadow="0">
      <root>
        <mxCell id="0" />
        <mxCell id="1" parent="0" />
        <mxCell id="SZ_Sdf0Yj5xQ3kzaO9SU-5" style="edgeStyle=orthogonalEdgeStyle;rounded=0;orthogonalLoop=1;jettySize=auto;html=1;exitX=0.5;exitY=1;exitDx=0;exitDy=0;entryX=0.5;entryY=0;entryDx=0;entryDy=0;" edge="1" parent="1" source="SZ_Sdf0Yj5xQ3kzaO9SU-1" target="SZ_Sdf0Yj5xQ3kzaO9SU-2">
          <mxGeometry relative="1" as="geometry" />
        </mxCell>
        <mxCell id="SZ_Sdf0Yj5xQ3kzaO9SU-1" value="Thank You Page" style="whiteSpace=wrap;html=1;aspect=fixed;" vertex="1" parent="1">
          <mxGeometry x="80" y="120" width="80" height="80" as="geometry" />
        </mxCell>
        <mxCell id="SZ_Sdf0Yj5xQ3kzaO9SU-2" value="Want to see more? &lt;br&gt;Render Link Tree" style="whiteSpace=wrap;html=1;aspect=fixed;" vertex="1" parent="1">
          <mxGeometry x="80" y="240" width="80" height="80" as="geometry" />
        </mxCell>
        <mxCell id="SZ_Sdf0Yj5xQ3kzaO9SU-4" style="edgeStyle=orthogonalEdgeStyle;rounded=0;orthogonalLoop=1;jettySize=auto;html=1;exitX=0;exitY=0.5;exitDx=0;exitDy=0;entryX=1;entryY=0.5;entryDx=0;entryDy=0;" edge="1" parent="1" source="SZ_Sdf0Yj5xQ3kzaO9SU-3" target="SZ_Sdf0Yj5xQ3kzaO9SU-1">
          <mxGeometry relative="1" as="geometry" />
        </mxCell>
        <mxCell id="SZ_Sdf0Yj5xQ3kzaO9SU-3" value="Contact Form" style="whiteSpace=wrap;html=1;aspect=fixed;" vertex="1" parent="1">
          <mxGeometry x="200" y="120" width="80" height="80" as="geometry" />
        </mxCell>
        <mxCell id="SZ_Sdf0Yj5xQ3kzaO9SU-9" style="edgeStyle=orthogonalEdgeStyle;rounded=0;orthogonalLoop=1;jettySize=auto;html=1;exitX=0;exitY=0.5;exitDx=0;exitDy=0;entryX=1;entryY=0.5;entryDx=0;entryDy=0;" edge="1" parent="1" source="SZ_Sdf0Yj5xQ3kzaO9SU-6" target="SZ_Sdf0Yj5xQ3kzaO9SU-3">
          <mxGeometry relative="1" as="geometry" />
        </mxCell>
        <mxCell id="SZ_Sdf0Yj5xQ3kzaO9SU-14" value="" style="edgeStyle=orthogonalEdgeStyle;rounded=0;orthogonalLoop=1;jettySize=auto;html=1;exitX=1;exitY=0.5;exitDx=0;exitDy=0;" edge="1" parent="1" source="SZ_Sdf0Yj5xQ3kzaO9SU-6" target="SZ_Sdf0Yj5xQ3kzaO9SU-13">
          <mxGeometry relative="1" as="geometry" />
        </mxCell>
        <mxCell id="SZ_Sdf0Yj5xQ3kzaO9SU-6" value="&lt;div&gt;WebDev&lt;/div&gt;&lt;div&gt;Tech Blog&lt;/div&gt;&lt;div&gt;Contact&lt;br&gt;&lt;/div&gt;" style="whiteSpace=wrap;html=1;aspect=fixed;fillColor=light-dark(#FFFFFF,#FF8000);" vertex="1" parent="1">
          <mxGeometry x="360" width="80" height="80" as="geometry" />
        </mxCell>
        <mxCell id="SZ_Sdf0Yj5xQ3kzaO9SU-10" style="edgeStyle=orthogonalEdgeStyle;rounded=0;orthogonalLoop=1;jettySize=auto;html=1;exitX=0;exitY=0.5;exitDx=0;exitDy=0;" edge="1" parent="1" source="SZ_Sdf0Yj5xQ3kzaO9SU-7">
          <mxGeometry relative="1" as="geometry">
            <mxPoint x="280" y="160" as="targetPoint" />
          </mxGeometry>
        </mxCell>
        <mxCell id="SZ_Sdf0Yj5xQ3kzaO9SU-19" style="edgeStyle=orthogonalEdgeStyle;rounded=0;orthogonalLoop=1;jettySize=auto;html=1;exitX=1;exitY=0.5;exitDx=0;exitDy=0;" edge="1" parent="1" source="SZ_Sdf0Yj5xQ3kzaO9SU-7" target="SZ_Sdf0Yj5xQ3kzaO9SU-17">
          <mxGeometry relative="1" as="geometry" />
        </mxCell>
        <mxCell id="SZ_Sdf0Yj5xQ3kzaO9SU-20" style="edgeStyle=orthogonalEdgeStyle;rounded=0;orthogonalLoop=1;jettySize=auto;html=1;exitX=1;exitY=0.5;exitDx=0;exitDy=0;entryX=0;entryY=0.5;entryDx=0;entryDy=0;" edge="1" parent="1" source="SZ_Sdf0Yj5xQ3kzaO9SU-7" target="SZ_Sdf0Yj5xQ3kzaO9SU-18">
          <mxGeometry relative="1" as="geometry" />
        </mxCell>
        <mxCell id="SZ_Sdf0Yj5xQ3kzaO9SU-7" value="&lt;div&gt;Photopholio&lt;/div&gt;&lt;div&gt;Vox Horroris&lt;/div&gt;&lt;div&gt;Contact&lt;br&gt;&lt;/div&gt;" style="whiteSpace=wrap;html=1;aspect=fixed;fillColor=light-dark(#FFFFFF,#FF8000);" vertex="1" parent="1">
          <mxGeometry x="360" y="120" width="80" height="80" as="geometry" />
        </mxCell>
        <mxCell id="SZ_Sdf0Yj5xQ3kzaO9SU-11" style="edgeStyle=orthogonalEdgeStyle;rounded=0;orthogonalLoop=1;jettySize=auto;html=1;exitX=0;exitY=0.5;exitDx=0;exitDy=0;entryX=1;entryY=0.5;entryDx=0;entryDy=0;" edge="1" parent="1" source="SZ_Sdf0Yj5xQ3kzaO9SU-8" target="SZ_Sdf0Yj5xQ3kzaO9SU-3">
          <mxGeometry relative="1" as="geometry" />
        </mxCell>
        <mxCell id="SZ_Sdf0Yj5xQ3kzaO9SU-23" style="edgeStyle=orthogonalEdgeStyle;rounded=0;orthogonalLoop=1;jettySize=auto;html=1;exitX=1;exitY=0.5;exitDx=0;exitDy=0;entryX=0;entryY=0.5;entryDx=0;entryDy=0;" edge="1" parent="1" source="SZ_Sdf0Yj5xQ3kzaO9SU-8" target="SZ_Sdf0Yj5xQ3kzaO9SU-21">
          <mxGeometry relative="1" as="geometry" />
        </mxCell>
        <mxCell id="SZ_Sdf0Yj5xQ3kzaO9SU-24" style="edgeStyle=orthogonalEdgeStyle;rounded=0;orthogonalLoop=1;jettySize=auto;html=1;exitX=1;exitY=0.5;exitDx=0;exitDy=0;entryX=0;entryY=0.5;entryDx=0;entryDy=0;" edge="1" parent="1" source="SZ_Sdf0Yj5xQ3kzaO9SU-8" target="SZ_Sdf0Yj5xQ3kzaO9SU-22">
          <mxGeometry relative="1" as="geometry" />
        </mxCell>
        <mxCell id="SZ_Sdf0Yj5xQ3kzaO9SU-8" value="&lt;div&gt;Feat Product&lt;br&gt;&lt;/div&gt;&lt;div&gt;Store&lt;/div&gt;&lt;div&gt;Contact Me&lt;br&gt;&lt;/div&gt;" style="whiteSpace=wrap;html=1;aspect=fixed;fillColor=light-dark(#FFFFFF,#FF8000);" vertex="1" parent="1">
          <mxGeometry x="360" y="240" width="80" height="80" as="geometry" />
        </mxCell>
        <mxCell id="SZ_Sdf0Yj5xQ3kzaO9SU-13" value="&lt;div&gt;WebDev&lt;/div&gt;&lt;div&gt;Landing&lt;br&gt;&lt;/div&gt;" style="whiteSpace=wrap;html=1;aspect=fixed;fillColor=light-dark(#FFFFFF,#6666FF);" vertex="1" parent="1">
          <mxGeometry x="560" y="-80" width="80" height="80" as="geometry" />
        </mxCell>
        <mxCell id="SZ_Sdf0Yj5xQ3kzaO9SU-15" value="" style="edgeStyle=orthogonalEdgeStyle;rounded=0;orthogonalLoop=1;jettySize=auto;html=1;exitX=1;exitY=0.5;exitDx=0;exitDy=0;entryX=0;entryY=0.5;entryDx=0;entryDy=0;" edge="1" parent="1" target="SZ_Sdf0Yj5xQ3kzaO9SU-16" source="SZ_Sdf0Yj5xQ3kzaO9SU-6">
          <mxGeometry relative="1" as="geometry">
            <mxPoint x="440" y="100" as="sourcePoint" />
          </mxGeometry>
        </mxCell>
        <mxCell id="SZ_Sdf0Yj5xQ3kzaO9SU-16" value="&lt;div&gt;Tech Blog&lt;br&gt;&lt;/div&gt;&lt;div&gt;Blog&lt;br&gt;&lt;/div&gt;" style="whiteSpace=wrap;html=1;aspect=fixed;fillColor=light-dark(#FFFFFF,#FF9999);" vertex="1" parent="1">
          <mxGeometry x="560" width="80" height="80" as="geometry" />
        </mxCell>
        <mxCell id="SZ_Sdf0Yj5xQ3kzaO9SU-17" value="&lt;div&gt;Photopholio&lt;/div&gt;Blog" style="whiteSpace=wrap;html=1;aspect=fixed;fillColor=light-dark(#FFFFFF,#FF9999);" vertex="1" parent="1">
          <mxGeometry x="560" y="90" width="80" height="80" as="geometry" />
        </mxCell>
        <mxCell id="SZ_Sdf0Yj5xQ3kzaO9SU-18" value="&lt;div&gt;VoxHorroris&lt;br&gt;&lt;/div&gt;&lt;div&gt;Blog&lt;br&gt;&lt;/div&gt;" style="whiteSpace=wrap;html=1;aspect=fixed;fillColor=light-dark(#FFFFFF,#FF9999);" vertex="1" parent="1">
          <mxGeometry x="560" y="170" width="80" height="80" as="geometry" />
        </mxCell>
        <mxCell id="SZ_Sdf0Yj5xQ3kzaO9SU-21" value="&lt;div&gt;FeatProduct&lt;/div&gt;&lt;div&gt;Store&lt;/div&gt;" style="whiteSpace=wrap;html=1;aspect=fixed;fillColor=light-dark(#FFFFFF,#B266FF);strokeColor=light-dark(#000000,#000000);" vertex="1" parent="1">
          <mxGeometry x="560" y="260" width="80" height="80" as="geometry" />
        </mxCell>
        <mxCell id="SZ_Sdf0Yj5xQ3kzaO9SU-22" value="&lt;div&gt;&lt;div&gt;Store&lt;/div&gt;&lt;/div&gt;" style="whiteSpace=wrap;html=1;aspect=fixed;fillColor=light-dark(#FFFFFF,#B266FF);strokeColor=light-dark(#000000,#000000);" vertex="1" parent="1">
          <mxGeometry x="560" y="340" width="80" height="80" as="geometry" />
        </mxCell>
        <mxCell id="SZ_Sdf0Yj5xQ3kzaO9SU-25" value="Link Tree" style="text;html=1;align=center;verticalAlign=middle;whiteSpace=wrap;rounded=0;" vertex="1" parent="1">
          <mxGeometry x="370" y="-40" width="60" height="30" as="geometry" />
        </mxCell>
      </root>
    </mxGraphModel>
  </diagram>
  <diagram id="GIB9nFPDyUedJ6ndbg7T" name="simple-mocks">
    <mxGraphModel dx="1809" dy="943" grid="1" gridSize="10" guides="1" tooltips="1" connect="1" arrows="1" fold="1" page="1" pageScale="1" pageWidth="850" pageHeight="1100" math="0" shadow="0">
      <root>
        <mxCell id="0" />
        <mxCell id="1" parent="0" />
        <mxCell id="NovXnF4NoAG3NK_YIU1f-1" value="" style="rounded=1;whiteSpace=wrap;html=1;" vertex="1" parent="1">
          <mxGeometry x="200" y="350" width="300" height="400" as="geometry" />
        </mxCell>
        <mxCell id="NovXnF4NoAG3NK_YIU1f-2" value="M" style="ellipse;whiteSpace=wrap;html=1;aspect=fixed;" vertex="1" parent="1">
          <mxGeometry x="320" y="370" width="60" height="60" as="geometry" />
        </mxCell>
        <mxCell id="NovXnF4NoAG3NK_YIU1f-3" value="Link 1" style="rounded=0;whiteSpace=wrap;html=1;" vertex="1" parent="1">
          <mxGeometry x="235" y="460" width="230" height="30" as="geometry" />
        </mxCell>
        <mxCell id="NovXnF4NoAG3NK_YIU1f-4" value="Link 2" style="rounded=0;whiteSpace=wrap;html=1;" vertex="1" parent="1">
          <mxGeometry x="235" y="510" width="230" height="30" as="geometry" />
        </mxCell>
        <mxCell id="NovXnF4NoAG3NK_YIU1f-5" value="Link 2" style="rounded=0;whiteSpace=wrap;html=1;" vertex="1" parent="1">
          <mxGeometry x="235" y="560" width="230" height="30" as="geometry" />
        </mxCell>
        <mxCell id="NovXnF4NoAG3NK_YIU1f-6" value="" style="endArrow=none;dashed=1;html=1;dashPattern=1 3;strokeWidth=2;rounded=0;" edge="1" parent="1">
          <mxGeometry width="50" height="50" relative="1" as="geometry">
            <mxPoint x="260" y="620" as="sourcePoint" />
            <mxPoint x="440" y="620" as="targetPoint" />
          </mxGeometry>
        </mxCell>
        <mxCell id="NovXnF4NoAG3NK_YIU1f-7" value="Social 1" style="ellipse;whiteSpace=wrap;html=1;" vertex="1" parent="1">
          <mxGeometry x="415" y="650" width="65" height="50" as="geometry" />
        </mxCell>
        <mxCell id="NovXnF4NoAG3NK_YIU1f-8" value="Social 1" style="ellipse;whiteSpace=wrap;html=1;" vertex="1" parent="1">
          <mxGeometry x="317.5" y="650" width="65" height="50" as="geometry" />
        </mxCell>
        <mxCell id="NovXnF4NoAG3NK_YIU1f-9" value="Social 1" style="ellipse;whiteSpace=wrap;html=1;" vertex="1" parent="1">
          <mxGeometry x="230" y="650" width="65" height="50" as="geometry" />
        </mxCell>
        <mxCell id="NovXnF4NoAG3NK_YIU1f-10" value="" style="rounded=1;whiteSpace=wrap;html=1;" vertex="1" parent="1">
          <mxGeometry x="530" y="350" width="300" height="300" as="geometry" />
        </mxCell>
        <mxCell id="NovXnF4NoAG3NK_YIU1f-11" value="Contact Form" style="text;html=1;align=center;verticalAlign=middle;whiteSpace=wrap;rounded=0;" vertex="1" parent="1">
          <mxGeometry x="565" y="370" width="230" height="30" as="geometry" />
        </mxCell>
        <mxCell id="NovXnF4NoAG3NK_YIU1f-12" value="Name" style="rounded=0;whiteSpace=wrap;html=1;" vertex="1" parent="1">
          <mxGeometry x="565" y="460" width="230" height="30" as="geometry" />
        </mxCell>
        <mxCell id="NovXnF4NoAG3NK_YIU1f-13" value="Email" style="rounded=0;whiteSpace=wrap;html=1;" vertex="1" parent="1">
          <mxGeometry x="565" y="500" width="230" height="30" as="geometry" />
        </mxCell>
        <mxCell id="NovXnF4NoAG3NK_YIU1f-14" value="Msg" style="rounded=0;whiteSpace=wrap;html=1;" vertex="1" parent="1">
          <mxGeometry x="565" y="540" width="230" height="30" as="geometry" />
        </mxCell>
        <mxCell id="NovXnF4NoAG3NK_YIU1f-15" value="ReCaptcha" style="rounded=0;whiteSpace=wrap;html=1;" vertex="1" parent="1">
          <mxGeometry x="565" y="580" width="230" height="30" as="geometry" />
        </mxCell>
        <mxCell id="NovXnF4NoAG3NK_YIU1f-16" value="" style="triangle;whiteSpace=wrap;html=1;" vertex="1" parent="1">
          <mxGeometry x="445" y="390" width="20" height="40" as="geometry" />
        </mxCell>
        <mxCell id="NovXnF4NoAG3NK_YIU1f-17" value="" style="triangle;whiteSpace=wrap;html=1;rotation=-180;" vertex="1" parent="1">
          <mxGeometry x="230" y="390" width="20" height="40" as="geometry" />
        </mxCell>
        <mxCell id="NovXnF4NoAG3NK_YIU1f-18" value="BG: random imgrelated to link tree topic" style="text;html=1;align=center;verticalAlign=middle;whiteSpace=wrap;rounded=0;" vertex="1" parent="1">
          <mxGeometry x="90" y="580" width="130" height="30" as="geometry" />
        </mxCell>
        <mxCell id="NovXnF4NoAG3NK_YIU1f-19" value="Topic 1 | Topic 2 | Topic 3" style="text;html=1;align=center;verticalAlign=middle;whiteSpace=wrap;rounded=0;" vertex="1" parent="1">
          <mxGeometry x="260" y="430" width="180" height="30" as="geometry" />
        </mxCell>
      </root>
    </mxGraphModel>
  </diagram>
  <diagram id="6AGvo-dD-u_TbAYHN-y1" name="Blog Flow">
    <mxGraphModel dx="1266" dy="1760" grid="1" gridSize="10" guides="1" tooltips="1" connect="1" arrows="1" fold="1" page="1" pageScale="1" pageWidth="850" pageHeight="1100" math="0" shadow="0">
      <root>
        <mxCell id="0" />
        <mxCell id="1" parent="0" />
        <mxCell id="GdzxEZfURGtWWDtTAim2-3" value="" style="edgeStyle=orthogonalEdgeStyle;rounded=0;orthogonalLoop=1;jettySize=auto;html=1;" edge="1" parent="1" source="GdzxEZfURGtWWDtTAim2-1" target="GdzxEZfURGtWWDtTAim2-2">
          <mxGeometry relative="1" as="geometry" />
        </mxCell>
        <mxCell id="GdzxEZfURGtWWDtTAim2-12" style="edgeStyle=orthogonalEdgeStyle;rounded=0;orthogonalLoop=1;jettySize=auto;html=1;exitX=1;exitY=0.5;exitDx=0;exitDy=0;entryX=0;entryY=0.5;entryDx=0;entryDy=0;" edge="1" parent="1" source="GdzxEZfURGtWWDtTAim2-1" target="GdzxEZfURGtWWDtTAim2-11">
          <mxGeometry relative="1" as="geometry" />
        </mxCell>
        <mxCell id="GdzxEZfURGtWWDtTAim2-21" style="edgeStyle=orthogonalEdgeStyle;rounded=0;orthogonalLoop=1;jettySize=auto;html=1;exitX=1;exitY=0.5;exitDx=0;exitDy=0;entryX=0;entryY=0.5;entryDx=0;entryDy=0;" edge="1" parent="1" source="GdzxEZfURGtWWDtTAim2-1" target="GdzxEZfURGtWWDtTAim2-20">
          <mxGeometry relative="1" as="geometry" />
        </mxCell>
        <mxCell id="GdzxEZfURGtWWDtTAim2-27" value="Menu" style="edgeLabel;html=1;align=center;verticalAlign=middle;resizable=0;points=[];" vertex="1" connectable="0" parent="GdzxEZfURGtWWDtTAim2-21">
          <mxGeometry x="0.0889" relative="1" as="geometry">
            <mxPoint as="offset" />
          </mxGeometry>
        </mxCell>
        <mxCell id="GdzxEZfURGtWWDtTAim2-28" style="edgeStyle=orthogonalEdgeStyle;rounded=0;orthogonalLoop=1;jettySize=auto;html=1;exitX=1;exitY=0.5;exitDx=0;exitDy=0;entryX=0;entryY=0.5;entryDx=0;entryDy=0;" edge="1" parent="1" source="GdzxEZfURGtWWDtTAim2-1" target="GdzxEZfURGtWWDtTAim2-29">
          <mxGeometry relative="1" as="geometry">
            <mxPoint x="250" y="-20" as="targetPoint" />
          </mxGeometry>
        </mxCell>
        <mxCell id="GdzxEZfURGtWWDtTAim2-30" value="Modal" style="edgeLabel;html=1;align=center;verticalAlign=middle;resizable=0;points=[];" vertex="1" connectable="0" parent="GdzxEZfURGtWWDtTAim2-28">
          <mxGeometry x="0.4615" y="-4" relative="1" as="geometry">
            <mxPoint x="-4" as="offset" />
          </mxGeometry>
        </mxCell>
        <mxCell id="GdzxEZfURGtWWDtTAim2-1" value="Home" style="rounded=1;whiteSpace=wrap;html=1;" vertex="1" parent="1">
          <mxGeometry x="100" y="140" width="120" height="60" as="geometry" />
        </mxCell>
        <mxCell id="GdzxEZfURGtWWDtTAim2-5" value="" style="edgeStyle=orthogonalEdgeStyle;rounded=0;orthogonalLoop=1;jettySize=auto;html=1;" edge="1" parent="1" source="GdzxEZfURGtWWDtTAim2-2" target="GdzxEZfURGtWWDtTAim2-4">
          <mxGeometry relative="1" as="geometry" />
        </mxCell>
        <mxCell id="GdzxEZfURGtWWDtTAim2-6" style="edgeStyle=orthogonalEdgeStyle;rounded=0;orthogonalLoop=1;jettySize=auto;html=1;exitX=1;exitY=0.5;exitDx=0;exitDy=0;entryX=0;entryY=0.5;entryDx=0;entryDy=0;" edge="1" parent="1" source="GdzxEZfURGtWWDtTAim2-2" target="GdzxEZfURGtWWDtTAim2-7">
          <mxGeometry relative="1" as="geometry">
            <mxPoint x="480" y="270" as="targetPoint" />
          </mxGeometry>
        </mxCell>
        <mxCell id="GdzxEZfURGtWWDtTAim2-2" value="Read Article" style="rounded=1;whiteSpace=wrap;html=1;fillColor=light-dark(#FFFFFF,#66CC00);" vertex="1" parent="1">
          <mxGeometry x="280" y="140" width="120" height="60" as="geometry" />
        </mxCell>
        <mxCell id="GdzxEZfURGtWWDtTAim2-9" value="" style="edgeStyle=orthogonalEdgeStyle;rounded=0;orthogonalLoop=1;jettySize=auto;html=1;" edge="1" parent="1" source="GdzxEZfURGtWWDtTAim2-4" target="GdzxEZfURGtWWDtTAim2-8">
          <mxGeometry relative="1" as="geometry" />
        </mxCell>
        <mxCell id="GdzxEZfURGtWWDtTAim2-4" value="Comment" style="whiteSpace=wrap;html=1;rounded=1;" vertex="1" parent="1">
          <mxGeometry x="480" y="140" width="120" height="60" as="geometry" />
        </mxCell>
        <mxCell id="GdzxEZfURGtWWDtTAim2-7" value="Like/Share" style="whiteSpace=wrap;html=1;rounded=1;" vertex="1" parent="1">
          <mxGeometry x="480" y="210" width="120" height="60" as="geometry" />
        </mxCell>
        <mxCell id="GdzxEZfURGtWWDtTAim2-10" style="edgeStyle=orthogonalEdgeStyle;rounded=0;orthogonalLoop=1;jettySize=auto;html=1;exitX=0.5;exitY=0;exitDx=0;exitDy=0;entryX=0.5;entryY=0;entryDx=0;entryDy=0;" edge="1" parent="1" source="GdzxEZfURGtWWDtTAim2-8" target="GdzxEZfURGtWWDtTAim2-4">
          <mxGeometry relative="1" as="geometry" />
        </mxCell>
        <mxCell id="GdzxEZfURGtWWDtTAim2-8" value="Request Auth" style="whiteSpace=wrap;html=1;rounded=1;fillColor=light-dark(#FFFFFF,#FF9933);" vertex="1" parent="1">
          <mxGeometry x="640" y="140" width="120" height="60" as="geometry" />
        </mxCell>
        <mxCell id="GdzxEZfURGtWWDtTAim2-14" style="edgeStyle=orthogonalEdgeStyle;rounded=0;orthogonalLoop=1;jettySize=auto;html=1;exitX=1;exitY=0.5;exitDx=0;exitDy=0;entryX=0;entryY=0.5;entryDx=0;entryDy=0;" edge="1" parent="1" source="GdzxEZfURGtWWDtTAim2-11" target="GdzxEZfURGtWWDtTAim2-13">
          <mxGeometry relative="1" as="geometry" />
        </mxCell>
        <mxCell id="GdzxEZfURGtWWDtTAim2-11" value="Create Article" style="rounded=1;whiteSpace=wrap;html=1;fillColor=light-dark(#FFFFFF,#66CC00);" vertex="1" parent="1">
          <mxGeometry x="280" y="320" width="120" height="60" as="geometry" />
        </mxCell>
        <mxCell id="GdzxEZfURGtWWDtTAim2-17" value="" style="edgeStyle=orthogonalEdgeStyle;rounded=0;orthogonalLoop=1;jettySize=auto;html=1;" edge="1" parent="1" source="GdzxEZfURGtWWDtTAim2-13" target="GdzxEZfURGtWWDtTAim2-16">
          <mxGeometry relative="1" as="geometry" />
        </mxCell>
        <mxCell id="GdzxEZfURGtWWDtTAim2-13" value="Request Auth" style="whiteSpace=wrap;html=1;rounded=1;fillColor=light-dark(#FFFFFF,#FF9933);" vertex="1" parent="1">
          <mxGeometry x="640" y="320" width="120" height="60" as="geometry" />
        </mxCell>
        <mxCell id="GdzxEZfURGtWWDtTAim2-18" style="edgeStyle=orthogonalEdgeStyle;rounded=0;orthogonalLoop=1;jettySize=auto;html=1;exitX=1;exitY=0.5;exitDx=0;exitDy=0;entryX=0.5;entryY=1;entryDx=0;entryDy=0;" edge="1" parent="1" source="GdzxEZfURGtWWDtTAim2-16" target="GdzxEZfURGtWWDtTAim2-11">
          <mxGeometry relative="1" as="geometry">
            <Array as="points">
              <mxPoint x="960" y="350" />
              <mxPoint x="960" y="430" />
              <mxPoint x="340" y="430" />
            </Array>
          </mxGeometry>
        </mxCell>
        <mxCell id="GdzxEZfURGtWWDtTAim2-16" value="Create Profile" style="whiteSpace=wrap;html=1;rounded=1;" vertex="1" parent="1">
          <mxGeometry x="800" y="320" width="120" height="60" as="geometry" />
        </mxCell>
        <mxCell id="GdzxEZfURGtWWDtTAim2-23" value="" style="edgeStyle=orthogonalEdgeStyle;rounded=0;orthogonalLoop=1;jettySize=auto;html=1;entryX=0;entryY=0.5;entryDx=0;entryDy=0;" edge="1" parent="1" source="GdzxEZfURGtWWDtTAim2-20" target="GdzxEZfURGtWWDtTAim2-25">
          <mxGeometry relative="1" as="geometry">
            <mxPoint x="480" y="50" as="targetPoint" />
          </mxGeometry>
        </mxCell>
        <mxCell id="GdzxEZfURGtWWDtTAim2-20" value="Profile" style="rounded=1;whiteSpace=wrap;html=1;fillColor=light-dark(#FFFFFF,#66CC00);" vertex="1" parent="1">
          <mxGeometry x="280" y="20" width="120" height="60" as="geometry" />
        </mxCell>
        <mxCell id="GdzxEZfURGtWWDtTAim2-25" value="LogOut/Edit" style="rounded=1;whiteSpace=wrap;html=1;" vertex="1" parent="1">
          <mxGeometry x="480" y="20" width="120" height="60" as="geometry" />
        </mxCell>
        <mxCell id="GdzxEZfURGtWWDtTAim2-29" value="Subscribe to Newsletter" style="rounded=1;whiteSpace=wrap;html=1;fillColor=light-dark(#FFFFFF,#66CC00);" vertex="1" parent="1">
          <mxGeometry x="280" y="-60" width="120" height="60" as="geometry" />
        </mxCell>
      </root>
    </mxGraphModel>
  </diagram>
</mxfile>
